#usda 1.0
(
    metersPerUnit = 0.01
    upAxis = "Z"
)

def Mesh "Obj"
{
    float3 xformOp:rotateXYZ = (10.0, 20.0, 30.0)
    float3 xformOp:scale = (1, 1, 1)
    double3 xformOp:translate = (0.0, 0.0, 0.0)
    uniform token[] xformOpOrder = ["xformOp:translate", "xformOp:rotateXYZ", "xformOp:scale"]

    uniform bool doubleSided = 1
    float3[] extent = [(-1.0000002, -1.0000001, -1), (1, 1.0000005, 1)]
    int[] faceVertexCounts = [20, 3, 3, 3, 3, 3, 3, 3, 3, 3, 3, 3, 3, 3, 3, 3, 3, 3, 3, 3, 3]
    int[] faceVertexIndices = [0, 19, 18, 17, 16, 15, 14, 13, 12, 11, 10, 9, 8, 7, 6, 5, 4, 3, 2, 1, 0, 1, 20, 1, 2, 20, 2, 3, 20, 3, 4, 20, 4, 5, 20, 5, 6, 20, 6, 7, 20, 7, 8, 20, 8, 9, 20, 9, 10, 20, 10, 11, 20, 11, 12, 20, 12, 13, 20, 13, 14, 20, 14, 15, 20, 15, 16, 20, 16, 17, 20, 17, 18, 20, 18, 19, 20, 19, 0, 20]
    normal3f[] normals = [(-1.9288462e-8, 0, -1), (-1.928846e-8, 0, -1), (-1.928846e-8, 0, -1), (-1.9288462e-8, 0, -1), (-1.928846e-8, 0, -1), (-1.928846e-8, 0, -1), (-1.928846e-8, 0, -1), (-1.928846e-8, 0, -1), (-1.9288462e-8, 0, -1), (-1.928846e-8, 0, -1), (-1.928846e-8, 0, -1), (-1.928846e-8, 0, -1), (-1.928846e-8, 0, -1), (-1.9288462e-8, 0, -1), (-1.928846e-8, 0, -1), (-1.928846e-8, 0, -1), (-1.928846e-8, 0, -1), (-1.928846e-8, 0, -1), (-1.928846e-8, 0, -1), (-1.928846e-8, 0, -1), (0.8506509, 0.27639234, 0.44721383), (0.7236067, 0.5257311, 0.44721386), (6.026196e-7, 4.2506204e-7, 1), (0.7236067, 0.5257311, 0.44721386), (0.52573097, 0.7236068, 0.44721383), (6.026196e-7, 4.2506204e-7, 1), (0.52573097, 0.7236068, 0.44721383), (0.27639306, 0.8506508, 0.44721377), (6.026196e-7, 4.2506204e-7, 1), (0.27639306, 0.8506508, 0.44721377), (-9.3400445e-8, 0.8944271, 0.44721377), (6.026196e-7, 4.2506204e-7, 1), (-9.3400445e-8, 0.8944271, 0.44721377), (-0.2763933, 0.85065067, 0.44721374), (6.026196e-7, 4.2506204e-7, 1), (-0.2763933, 0.85065067, 0.44721374), (-0.52573127, 0.72360665, 0.4472137), (6.026196e-7, 4.2506204e-7, 1), (-0.52573127, 0.72360665, 0.4472137), (-0.72360677, 0.52573097, 0.4472137), (6.026196e-7, 4.2506204e-7, 1), (-0.72360677, 0.52573097, 0.4472137), (-0.8506507, 0.27639306, 0.44721368), (6.026196e-7, 4.2506204e-7, 1), (-0.8506507, 0.27639306, 0.44721368), (-0.8944272, 0, 0.44721365), (6.026196e-7, 4.2506204e-7, 1), (-0.8944272, 0, 0.44721365), (-0.8506508, -0.2763932, 0.4472137), (6.026196e-7, 4.2506204e-7, 1), (-0.8506508, -0.2763932, 0.4472137), (-0.72360665, -0.52573115, 0.44721362), (6.026196e-7, 4.2506204e-7, 1), (-0.72360665, -0.52573115, 0.44721362), (-0.52573097, -0.72360677, 0.44721365), (6.026196e-7, 4.2506204e-7, 1), (-0.52573097, -0.72360677, 0.44721365), (-0.27639315, -0.8506508, 0.44721365), (6.026196e-7, 4.2506204e-7, 1), (-0.27639315, -0.8506508, 0.44721365), (8.621585e-8, -0.8944272, 0.4472136), (6.026196e-7, 4.2506204e-7, 1), (8.621585e-8, -0.8944272, 0.4472136), (0.2763933, -0.8506508, 0.4472136), (6.026196e-7, 4.2506204e-7, 1), (0.2763933, -0.8506508, 0.4472136), (0.52573115, -0.72360677, 0.4472136), (6.026196e-7, 4.2506204e-7, 1), (0.52573115, -0.72360677, 0.4472136), (0.7236068, -0.52573115, 0.44721365), (6.026196e-7, 4.2506204e-7, 1), (0.7236068, -0.52573115, 0.44721365), (0.85065085, -0.27639318, 0.4472136), (6.026196e-7, 4.2506204e-7, 1), (0.85065085, -0.27639318, 0.4472136), (0.89442724, -8.1186545e-7, 0.44721362), (6.026196e-7, 4.2506204e-7, 1), (0.89442724, -8.1186545e-7, 0.44721362), (0.8506509, 0.27639234, 0.44721383), (6.026196e-7, 4.2506204e-7, 1)] (
        interpolation = "faceVarying"
    )
    point3f[] points = [(0.95105714, 0.30901718, -1), (0.80901754, 0.5877856, -1), (0.5877856, 0.8090175, -1), (0.30901715, 0.951057, -1), (0, 1.0000005, -1), (-0.30901715, 0.95105696, -1), (-0.5877855, 0.8090173, -1), (-0.80901724, 0.5877854, -1), (-0.9510568, 0.30901706, -1), (-1.0000002, 0, -1), (-0.9510568, -0.30901706, -1), (-0.8090172, -0.58778536, -1), (-0.58778536, -0.8090171, -1), (-0.30901706, -0.95105666, -1), (-2.9802322e-8, -1.0000001, -1), (0.30901697, -0.9510566, -1), (0.58778524, -0.80901706, -1), (0.809017, -0.5877853, -1), (0.95105654, -0.309017, -1), (1, 0, -1), (0, 0, 1)]
    texCoord2f[] primvars:st = [(0.7377643, 0.1727457), (0.7022544, 0.1030536), (0.64694643, 0.04774563), (0.5772543, 0.012235746), (0.5, -1.1920929e-7), (0.4227457, 0.012235761), (0.35305363, 0.047745675), (0.2977457, 0.103053644), (0.26223582, 0.17274573), (0.24999994, 0.25), (0.26223582, 0.32725427), (0.2977457, 0.39694634), (0.35305366, 0.4522543), (0.42274573, 0.48776418), (0.5, 0.5), (0.57725424, 0.48776415), (0.6469463, 0.45225427), (0.70225424, 0.3969463), (0.7377641, 0.32725424), (0.75, 0.25), (0.25, 0.5), (0.275, 0.5), (0.3, 0.5), (0.32500002, 0.5), (0.35000002, 0.5), (0.37500003, 0.5), (0.40000004, 0.5), (0.42500004, 0.5), (0.45000005, 0.5), (0.47500005, 0.5), (0.50000006, 0.5), (0.52500004, 0.5), (0.55, 0.5), (0.575, 0.5), (0.59999996, 0.5), (0.62499994, 0.5), (0.6499999, 0.5), (0.6749999, 0.5), (0.69999987, 0.5), (0.72499985, 0.5), (0.7499998, 0.5), (0.5, 1)] (
        customData = {
            dictionary Maya = {
                token name = "map1"
            }
        }
        interpolation = "faceVarying"
    )
    int[] primvars:st:indices = [0, 19, 18, 17, 16, 15, 14, 13, 12, 11, 10, 9, 8, 7, 6, 5, 4, 3, 2, 1, 20, 21, 41, 21, 22, 41, 22, 23, 41, 23, 24, 41, 24, 25, 41, 25, 26, 41, 26, 27, 41, 27, 28, 41, 28, 29, 41, 29, 30, 41, 30, 31, 41, 31, 32, 41, 32, 33, 41, 33, 34, 41, 34, 35, 41, 35, 36, 41, 36, 37, 41, 37, 38, 41, 38, 39, 41, 39, 40, 41]
    uniform token subdivisionScheme = "none"
}