#usda 1.0
(
    defaultPrim = "PolyCube"
    doc = "Blender v4.0.2"
    metersPerUnit = 1
    upAxis = "Z"
)

def Xform "Root0"
{
    def Xform "Root1"
    {
        double3 xformOp:translate = (0, 0.7553912187166116, 0)
        uniform token[] xformOpOrder = ["xformOp:translate"]

        def Xform "Root2"
        {
            double3 xformOp:translate = (0, 0.7673323305552882, 0)
            uniform token[] xformOpOrder = ["xformOp:translate"]
        }
    }
}

def Mesh "PolyCube"
{
    uniform bool doubleSided = 1
    float3[] extent = [(-0.5, -0.5, -0.5), (0.5, 0.5, 0.5)]
    int[] faceVertexCounts = [4, 4, 4, 4, 4, 4]
    int[] faceVertexIndices = [0, 1, 3, 2, 2, 3, 5, 4, 4, 5, 7, 6, 6, 7, 1, 0, 1, 7, 5, 3, 6, 0, 2, 4]
    normal3f[] normals = [(0, 0, 1), (0, 0, 1), (0, 0, 1), (0, 0, 1), (0, 1, 0), (0, 1, 0), (0, 1, 0), (0, 1, 0), (0, 0, -1), (0, 0, -1), (0, 0, -1), (0, 0, -1), (0, -1, 0), (0, -1, 0), (0, -1, 0), (0, -1, 0), (1, 0, 0), (1, 0, 0), (1, 0, 0), (1, 0, 0), (-1, 0, 0), (-1, 0, 0), (-1, 0, 0), (-1, 0, 0)] (
        interpolation = "faceVarying"
    )
    point3f[] points = [(-0.5, -0.5, 0.5), (0.5, -0.5, 0.5), (-0.5, 0.5, 0.5), (0.5, 0.5, 0.5), (-0.5, 0.5, -0.5), (0.5, 0.5, -0.5), (-0.5, -0.5, -0.5), (0.5, -0.5, -0.5)]
    texCoord2f[] primvars:st = [(0.375, 0), (0.625, 0), (0.375, 0.25), (0.625, 0.25), (0.375, 0.5), (0.625, 0.5), (0.375, 0.75), (0.625, 0.75), (0.375, 1), (0.625, 1), (0.875, 0), (0.875, 0.25), (0.125, 0), (0.125, 0.25)] (
        customData = {
            dictionary Maya = {
                token name = "map1"
            }
        }
        interpolation = "faceVarying"
    )
    int[] primvars:st:indices = [0, 1, 3, 2, 2, 3, 5, 4, 4, 5, 7, 6, 6, 7, 9, 8, 1, 10, 11, 3, 12, 0, 2, 13]
    uniform token subdivisionScheme = "none"
    double3 xformOp:translate = (0, 2.227251019167249, 0)
    uniform token[] xformOpOrder = ["xformOp:translate"]
}

def Cube "UsdCube"
{
    float3[] extent = [(-0.5, -0.5, -0.5), (0.5, 0.5, 0.5)]
    double size = 1
    float3 xformOp:rotateXYZ = (0, -0, 0)
    float3 xformOp:scale = (1, 1, 1)
    double3 xformOp:translate = (-2.9547305492817384, 0, 0)
    uniform token[] xformOpOrder = ["xformOp:translate", "xformOp:rotateXYZ", "xformOp:scale"]
}

def Sphere "UsdSphere"
{
    float3[] extent = [(-0.7, -0.7, -0.7), (0.7, 0.7, 0.7)]
    double radius = 0.7
    float3 xformOp:rotateXYZ = (0, -0, 0)
    float3 xformOp:scale = (1, 1, 1)
    double3 xformOp:translate = (1.8345775985734996, 0, 0)
    uniform token[] xformOpOrder = ["xformOp:translate", "xformOp:rotateXYZ", "xformOp:scale"]
}

def Capsule "UsdCapsule"
{
    float3[] extent = [(-0.5870842, -0.5870842, -1.1370841), (0.5870842, 0.5870842, 1.1370841)]
    float3 xformOp:rotateXYZ = (6.5160604, 42.183372, -26.753256)
    double3 xformOp:translate = (1.535935055776347, 1.019155647036135, -1.8023496785102928)
    uniform token[] xformOpOrder = ["xformOp:translate", "xformOp:rotateXYZ"]
}

def Cone "UsdCone"
{
    float3 xformOp:rotateXYZ = (-51.02457, 16.235271, 23.131897)
    double3 xformOp:translate = (-0.31989154292134003, 0.12291324386364799, 0.14042142364957755)
    uniform token[] xformOpOrder = ["xformOp:translate", "xformOp:rotateXYZ"]
}

def Cylinder "UsdCylinder"
{
    float3[] extent = [(-0.39138943, -0.39138943, -0.8806262), (0.39138943, 0.39138943, 0.8806262)]
    double height = 1.761252436342188
    double radius = 0.391389430298264
    float3 xformOp:rotateXYZ = (-49.58639, -36.97524, 46.234745)
    double3 xformOp:translate = (-1.725159848218289, -0.5633523677084256, 1.6168627119630399)
    uniform token[] xformOpOrder = ["xformOp:translate", "xformOp:rotateXYZ"]
}

