#usda 1.0
(
    defaultPrim = "Mesh"
    doc = "Blender v4.0.2"
    metersPerUnit = 1
    upAxis = "Z"
)

def Scope "BellaLi"
{}

def Xform "Group"
{
    matrix4d xformOp:transform = ( (1, 0, 0, 0), (0, 1, 0, 0), (0, 0, 1, 0), (0, 0, 0, 1) )
    uniform token[] xformOpOrder = ["xformOp:transform"]

    def Mesh "Mesh" (
        prepend apiSchemas = ["MaterialBindingAPI"]
    )
    {
        uniform bool doubleSided = 1
        float3[] extent = [(-0.5, -0.50016916, -5.9604645e-8), (0.5, 0.50016916, 0.96977556)]
        int[] faceVertexCounts = [4, 3, 4, 4, 4, 4, 4, 3, 4, 4, 3, 3, 4, 4, 4, 4, 4, 4, 4, 4, 4, 4, 4, 4, 4, 4, 4, 4, 4, 4, 4, 4, 4, 4, 4]
        int[] faceVertexIndices = [27, 51, 52, 28, 4, 13, 2, 3, 7, 20, 17, 9, 11, 5, 1, 6, 0, 18, 21, 4, 2, 16, 15, 12, 8, 7, 3, 10, 0, 6, 26, 50, 51, 27, 23, 49, 50, 26, 8, 9, 10, 11, 12, 13, 16, 2, 3, 17, 18, 0, 1, 19, 11, 9, 8, 12, 12, 3, 2, 13, 0, 10, 9, 1, 10, 6, 7, 8, 13, 4, 5, 11, 4, 15, 14, 5, 6, 21, 20, 7, 1, 5, 14, 19, 22, 48, 49, 23, 25, 47, 48, 22, 24, 46, 47, 25, 29, 53, 46, 24, 28, 52, 53, 29, 38, 45, 34, 33, 44, 43, 30, 35, 40, 39, 32, 37, 34, 45, 44, 35, 30, 43, 42, 31, 36, 41, 40, 37, 32, 39, 38, 33, 42, 41, 36, 31]
        rel material:binding = </_materials/Material>
        normal3f[] normals = [(0.16828145, -0.079825774, -0.98250157), (0.18724857, -0.055596117, -0.980738), (0.18724841, 0.05559612, -0.980738), (0.1682812, 0.07982578, -0.98250157), (0.83635455, 0.36556125, 0.4085047), (0.49382046, 1.1653866e-7, 0.8695638), (0.83635443, -0.36556146, 0.4085047), (0.36103743, -0.8248836, 0.4349931), (-0.35551462, -0.8281164, 0.4333965), (-0.38302895, -0.9237339, -0.0021151928), (0.38331655, -0.9236156, -0.0016165322), (-0.13796799, 0.31339028, 0.9395485), (0.14621776, 0.31401142, 0.93809235), (0.36103767, 0.82488346, 0.43499312), (-0.35551435, 0.8281166, 0.43339643), (-0.8334645, -0.37290242, 0.40777543), (-0.83346426, 0.3729026, 0.40777558), (-0.9239845, 0.3824207, 0.0026583732), (-0.9239846, -0.38242042, 0.002658373), (0.83635455, 0.36556125, 0.4085047), (0.83635443, -0.36556146, 0.4085047), (0.9241552, -0.38196346, 0.006405334), (0.9241552, 0.38196352, 0.0064057866), (0.14621753, -0.31401104, 0.9380925), (-0.1379681, -0.31339017, 0.9395486), (-0.35551462, -0.8281164, 0.4333965), (0.36103743, -0.8248836, 0.4349931), (-0.49635425, 5.356139e-8, 0.86812), (-0.83346426, 0.3729026, 0.40777558), (-0.8334645, -0.37290242, 0.40777543), (0.07982589, -0.16828111, -0.9825015), (0.05559621, -0.18724822, -0.9807381), (0.18724857, -0.055596117, -0.980738), (0.16828145, -0.079825774, -0.98250157), (-0.07982564, -0.16828112, -0.9825015), (-0.055596035, -0.18724819, -0.98073804), (0.05559621, -0.18724822, -0.9807381), (0.07982589, -0.16828111, -0.9825015), (-0.1379681, -0.31339017, 0.9395486), (-0.13796799, 0.31339028, 0.9395485), (-0.49635425, 5.356139e-8, 0.86812), (0.14621776, 0.31401142, 0.93809235), (0.14621753, -0.31401104, 0.9380925), (0.49382046, 1.1653866e-7, 0.8695638), (0.9241552, -0.38196346, 0.006405334), (0.83635443, -0.36556146, 0.4085047), (0.36103743, -0.8248836, 0.4349931), (0.38331655, -0.9236156, -0.0016165322), (-0.9239845, 0.3824207, 0.0026583732), (-0.83346426, 0.3729026, 0.40777558), (-0.35551435, 0.8281166, 0.43339643), (-0.3830287, 0.923734, -0.0021151954), (0.14621776, 0.31401142, 0.93809235), (-0.13796799, 0.31339028, 0.9395485), (-0.1379681, -0.31339017, 0.9395486), (0.14621753, -0.31401104, 0.9380925), (0.14621753, -0.31401104, 0.9380925), (0.36103743, -0.8248836, 0.4349931), (0.83635443, -0.36556146, 0.4085047), (0.49382046, 1.1653866e-7, 0.8695638), (-0.83346426, 0.3729026, 0.40777558), (-0.49635425, 5.356139e-8, 0.86812), (-0.13796799, 0.31339028, 0.9395485), (-0.35551435, 0.8281166, 0.43339643), (-0.49635425, 5.356139e-8, 0.86812), (-0.8334645, -0.37290242, 0.40777543), (-0.35551462, -0.8281164, 0.4333965), (-0.1379681, -0.31339017, 0.9395486), (0.49382046, 1.1653866e-7, 0.8695638), (0.83635455, 0.36556125, 0.4085047), (0.36103767, 0.82488346, 0.43499312), (0.14621776, 0.31401142, 0.93809235), (0.83635455, 0.36556125, 0.4085047), (0.9241552, 0.38196352, 0.0064057866), (0.38331667, 0.9236156, -0.0016160817), (0.36103767, 0.82488346, 0.43499312), (-0.8334645, -0.37290242, 0.40777543), (-0.9239846, -0.38242042, 0.002658373), (-0.38302895, -0.9237339, -0.0021151928), (-0.35551462, -0.8281164, 0.4333965), (-0.35551435, 0.8281166, 0.43339643), (0.36103767, 0.82488346, 0.43499312), (0.38331667, 0.9236156, -0.0016160817), (-0.3830287, 0.923734, -0.0021151954), (-0.1682812, -0.07982578, -0.98250157), (-0.18724841, -0.05559612, -0.980738), (-0.055596035, -0.18724819, -0.98073804), (-0.07982564, -0.16828112, -0.9825015), (-0.16828145, 0.079825774, -0.98250157), (-0.18724857, 0.055596117, -0.980738), (-0.18724841, -0.05559612, -0.980738), (-0.1682812, -0.07982578, -0.98250157), (-0.07982589, 0.16828111, -0.9825015), (-0.05559621, 0.18724822, -0.9807381), (-0.18724857, 0.055596117, -0.980738), (-0.16828145, 0.079825774, -0.98250157), (0.07982564, 0.16828112, -0.9825015), (0.055596035, 0.18724819, -0.98073804), (-0.05559621, 0.18724822, -0.9807381), (-0.07982589, 0.16828111, -0.9825015), (0.1682812, 0.07982578, -0.98250157), (0.18724841, 0.05559612, -0.980738), (0.055596035, 0.18724819, -0.98073804), (0.07982564, 0.16828112, -0.9825015), (-0.3826833, 0.9238795, 0), (0.3826833, 0.9238795, 0), (0.3826833, 0.9238795, 0), (-0.3826833, 0.9238795, 0), (0.9238795, 0.38268355, 0), (0.9238795, -0.38268355, 0), (0.9238795, -0.38268355, 0), (0.9238795, 0.38268355, 0), (-0.9238795, -0.38268355, 0), (-0.9238795, 0.38268355, 0), (-0.9238795, 0.38268355, 0), (-0.9238795, -0.38268346, 0), (0.3826833, 0.9238795, 0), (0.3826833, 0.9238795, 0), (0.9238795, 0.38268355, 0), (0.9238795, 0.38268355, 0), (0.9238795, -0.38268355, 0), (0.9238795, -0.38268355, 0), (0.3826833, -0.9238795, 0), (0.3826833, -0.9238795, 0), (-0.3826834, -0.9238795, 0), (-0.3826833, -0.9238795, 0), (-0.9238795, -0.38268355, 0), (-0.9238795, -0.38268346, 0), (-0.9238795, 0.38268355, 0), (-0.9238795, 0.38268355, 0), (-0.3826833, 0.9238795, 0), (-0.3826833, 0.9238795, 0), (0.3826833, -0.9238795, 0), (-0.3826833, -0.9238795, 0), (-0.3826834, -0.9238795, 0), (0.3826833, -0.9238795, 0)] (
            interpolation = "faceVarying"
        )
        point3f[] points = [(-0.4998901, 0.43989742, 0.62977576), (-0.44008243, 0.50007695, 0.63016826), (0.4997358, -0.43977442, 0.6294849), (0.44019815, -0.50016916, 0.6303865), (0.49973577, 0.4397744, 0.62948483), (0.44019815, 0.50016916, 0.6303864), (-0.4998901, -0.43989742, 0.6297757), (-0.44008243, -0.50007695, 0.63016826), (-0.1698901, -0.049897388, 0.96977556), (-0.1698901, 0.049897388, 0.96977556), (-0.24032965, 0, 0.9573006), (0.16973579, 0.049774382, 0.9694847), (0.1697358, -0.049774393, 0.96948475), (0.23079258, -2.1624146e-8, 0.95817316), (0.44000003, 0.5, 0.6036277), (0.5, 0.44000003, 0.6036277), (0.5, -0.44000003, 0.6036277), (0.44000003, -0.5, 0.6036277), (-0.5, 0.44000003, 0.6036277), (-0.44000003, 0.5, 0.6036277), (-0.44000003, -0.5, 0.6036277), (-0.5, -0.44000003, 0.6036277), (-0.5, -0.44000003, 0.6036277), (-0.44000003, -0.5, 0.6036277), (-0.44000003, 0.5, 0.6036277), (-0.5, 0.44000003, 0.6036277), (0.44000003, -0.5, 0.6036277), (0.5, -0.44000003, 0.6036277), (0.5, 0.44000003, 0.6036277), (0.44000003, 0.5, 0.6036277), (0.39999998, -0.35999998, -2.9802322e-8), (0.35999998, -0.39999998, -2.9802322e-8), (-0.39999998, 0.35999998, -2.9802322e-8), (-0.35999998, 0.39999998, -2.9802322e-8), (0.35999998, 0.39999998, -2.9802322e-8), (0.39999998, 0.35999998, -2.9802322e-8), (-0.35999998, -0.39999998, -2.9802322e-8), (-0.39999998, -0.35999998, -5.9604645e-8), (-0.35999998, 0.39999998, 0.58000004), (-0.39999998, 0.35999998, 0.58000004), (-0.39999998, -0.35999998, 0.58000004), (-0.35999998, -0.39999998, 0.58000004), (0.35999998, -0.39999998, 0.58000004), (0.39999998, -0.35999998, 0.58000004), (0.39999998, 0.35999998, 0.58000004), (0.35999998, 0.39999998, 0.58000004), (-0.35999998, 0.39999998, 0.58000004), (-0.39999998, 0.35999998, 0.58000004), (-0.39999998, -0.35999998, 0.58000004), (-0.35999998, -0.39999998, 0.58000004), (0.35999998, -0.39999998, 0.58000004), (0.39999998, -0.35999998, 0.58000004), (0.39999998, 0.35999998, 0.58000004), (0.35999998, 0.39999998, 0.58000004)]
        texCoord2f[] primvars:UVMap = [(0.97906727, 0.3338607), (0.9450536, 0.2934628), (0.9451612, 0.08146942), (0.9793259, 0.04117599), (0.5315845, 0.050747067), (0.31249994, 0.26175293), (0.09341551, 0.050747067), (0.9588584, 0.36289495), (0.6658571, 0.36293972), (0.66585577, 0.35415894), (0.95885706, 0.35411406), (0.337396, 0.46283224), (0.337396, 0.2935397), (0.61721504, 0.15910152), (0.617215, 0.59727037), (0.6369027, 0.33382565), (0.63709193, 0.04110694), (0.64586425, 0.0411126), (0.64567506, 0.33383137), (0.98809725, 0.04118374), (0.9878386, 0.33386844), (0.97906727, 0.3338607), (0.9793259, 0.04117599), (0.28760403, 0.2935397), (0.28760403, 0.46283215), (0.0077849627, 0.59727037), (0.0077849627, 0.15910155), (0.3125, 0.5015343), (0.53158444, 0.7094032), (0.09341556, 0.7094032), (0.95885706, 0.35411406), (0.91848004, 0.31993508), (0.9450536, 0.2934628), (0.97906727, 0.3338607), (0.66585577, 0.35415894), (0.7063633, 0.3200546), (0.91848004, 0.31993508), (0.95885706, 0.35411406), (0.28760403, 0.46283215), (0.337396, 0.46283224), (0.3125, 0.49804044), (0.337396, 0.2935397), (0.28760403, 0.2935397), (0.3125, 0.2632525), (0.97906727, 0.3338607), (0.98536205, 0.34014195), (0.9651518, 0.36039543), (0.95885706, 0.35411406), (0.64586425, 0.0411126), (0.6395645, 0.034827948), (0.6597853, 0.014558315), (0.6660851, 0.02084297), (0.337396, 0.2935397), (0.337396, 0.46283224), (0.28760403, 0.46283215), (0.28760403, 0.2935397), (0.28760403, 0.2935397), (0.036394924, 0.111148834), (0.06767449, 0.08274755), (0.3125, 0.2632525), (0.5629847, 0.6730976), (0.3125, 0.49804044), (0.337396, 0.46283224), (0.58950317, 0.6398953), (0.3125, 0.49804044), (0.06415431, 0.66988903), (0.03335774, 0.6409648), (0.28760403, 0.46283215), (0.3125, 0.2632525), (0.5573255, 0.08274761), (0.5886051, 0.11114898), (0.337396, 0.2935397), (0.9856454, 0.03490469), (0.9793259, 0.04117599), (0.9591481, 0.020843), (0.96546763, 0.0145716965), (0.6393572, 0.3401035), (0.64567506, 0.33383137), (0.66585577, 0.35415894), (0.6595379, 0.36043108), (0.6660851, 0.012060285), (0.9591481, 0.012060314), (0.9591481, 0.020843), (0.6660851, 0.02084297), (0.64567506, 0.33383137), (0.6798314, 0.2935331), (0.7063633, 0.3200546), (0.66585577, 0.35415894), (0.64586425, 0.0411126), (0.6798977, 0.081530035), (0.6798314, 0.2935331), (0.64567506, 0.33383137), (0.6660851, 0.02084297), (0.70647883, 0.05503422), (0.6798977, 0.081530035), (0.64586425, 0.0411126), (0.9591481, 0.020843), (0.9186348, 0.05494374), (0.70647883, 0.05503422), (0.6660851, 0.02084297), (0.9793259, 0.04117599), (0.9451612, 0.08146942), (0.9186348, 0.05494374), (0.9591481, 0.020843), (0.74994373, 0.97163475), (0.51815474, 0.97163475), (0.51815474, 0.7797579), (0.7499436, 0.77975786), (0.49994364, 0.9716347), (0.26815474, 0.9716347), (0.26815468, 0.77975786), (0.49994364, 0.7797579), (0.99994373, 0.9716347), (0.76815474, 0.97163475), (0.76815474, 0.77975786), (0.9999435, 0.77975786), (0.51815474, 0.7797579), (0.51815474, 0.97163475), (0.49994364, 0.9716347), (0.49994364, 0.7797579), (0.26815468, 0.77975786), (0.26815474, 0.9716347), (0.24994367, 0.97163475), (0.24994367, 0.77975786), (0.01815468, 0.779758), (0.01815474, 0.97163475), (-0.00005632639, 0.97163475), (-0.0000564456, 0.7797579), (0.76815474, 0.77975786), (0.76815474, 0.97163475), (0.74994373, 0.97163475), (0.7499436, 0.77975786), (0.24994367, 0.97163475), (0.01815474, 0.97163475), (0.01815468, 0.779758), (0.24994367, 0.77975786)] (
            interpolation = "faceVarying"
        )
        uniform token subdivisionScheme = "none"
    }
}

def "_materials"
{
    def Material "Material"
    {
        token outputs:surface.connect = </_materials/Material/Principled_BSDF.outputs:surface>

        def Shader "Principled_BSDF"
        {
            uniform token info:id = "UsdPreviewSurface"
            float inputs:clearcoat = 0
            float inputs:clearcoatRoughness = 0.03
            color3f inputs:diffuseColor.connect = </_materials/Material/Image_Texture.outputs:rgb>
            float inputs:ior = 1.45
            float inputs:metallic = 0
            float inputs:opacity = 1
            float inputs:roughness = 1
            float inputs:specular = 0.5
            token outputs:surface
        }

        def Shader "Image_Texture"
        {
            uniform token info:id = "UsdUVTexture"
            asset inputs:file = @./textures/color.png@
            token inputs:sourceColorSpace = "sRGB"
            float2 inputs:st.connect = </_materials/Material/uvmap.outputs:result>
            float3 outputs:rgb
        }

        def Shader "uvmap"
        {
            uniform token info:id = "UsdPrimvarReader_float2"
            token inputs:varname = "UVMap"
            float2 outputs:result
        }
    }
}

