#usda 1.0
(
    defaultPrim = "Cube"
    doc = "Blender v4.0.2"
    metersPerUnit = 1
    upAxis = "Z"
)


def Mesh "faceVarying"
{
    float3[] extent = [(-1, -1, -1), (1, 1, 1)]
    int[] faceVertexCounts = [4, 3]
    int[] faceVertexIndices = [0, 2, 4, 1, 3, 4, 2]
    normal3f[] normals = [(0, 0, 1), (0, 0, 1), (0, 0, 1), (0, 0, 1), (-1, 0, 0), (-1, 0, 0), (-1, 0, 0)] (
        interpolation = "faceVarying"
    )
    point3f[] points = [(1, 1, 1), (1, -1, 1), (-1, 1, 1), (-1, 1, -1), (-1, -1, 1)]
    texCoord2f[] primvars:UVMap = [(0.625, 0.5), (0.875, 0.5), (0.875, 0.75), (0.625, 0.75), (0.375, 0.25), (0.625, 0), (0.625, 0.25)] (
        interpolation = "faceVarying"
    )
    uniform token subdivisionScheme = "none"
}

def Mesh "costant"
{
    float3[] extent = [(-1, -1, -1), (1, 1, 1)]
    int[] faceVertexCounts = [4, 3]
    int[] faceVertexIndices = [0, 2, 4, 1, 3, 4, 2]
    normal3f[] normals = [(0, 1, 0)] (
        interpolation = "constant"
    )
    point3f[] points = [(1, 1, 1), (1, -1, 1), (-1, 1, 1), (-1, 1, -1), (-1, -1, 1)]
    texCoord2f[] primvars:UVMap = [(0.625, 0.5), (0.875, 0.5), (0.875, 0.75), (0.625, 0.75), (0.375, 0.25), (0.625, 0), (0.625, 0.25)] (
        interpolation = "faceVarying"
    )
    uniform token subdivisionScheme = "none"
}

def Mesh "vertex"
{
    float3[] extent = [(-1, -1, -1), (1, 1, 1)]
    int[] faceVertexCounts = [4, 3]
    int[] faceVertexIndices = [0, 2, 4, 1, 3, 4, 2]
    normal3f[] normals = [(0, 0, 1), (0, 0, 1), (-1, 0, 1), (-1, 0, 0), (-1, 0, 1)] (
        interpolation = "vertex"
    )
    point3f[] points = [(1, 1, 1), (1, -1, 1), (-1, 1, 1), (-1, 1, -1), (-1, -1, 1)]
    texCoord2f[] primvars:UVMap = [(0.625, 0.5), (0.875, 0.5), (0.875, 0.75), (0.625, 0.75), (0.375, 0.25), (0.625, 0), (0.625, 0.25)] (
        interpolation = "faceVarying"
    )
    uniform token subdivisionScheme = "none"
}

def Mesh "uniform"
{
    float3[] extent = [(-1, -1, -1), (1, 1, 1)]
    int[] faceVertexCounts = [4, 3]
    int[] faceVertexIndices = [0, 2, 4, 1, 3, 4, 2]
    normal3f[] normals = [(0, 0, 1), (-1, 0, 0)] (
        interpolation = "uniform"
    )
    point3f[] points = [(1, 1, 1), (1, -1, 1), (-1, 1, 1), (-1, 1, -1), (-1, -1, 1)]
    texCoord2f[] primvars:UVMap = [(0.625, 0.5), (0.875, 0.5), (0.875, 0.75), (0.625, 0.75), (0.375, 0.25), (0.625, 0), (0.625, 0.25)] (
        interpolation = "faceVarying"
    )
    uniform token subdivisionScheme = "none"
}



